<svg width="64" height="64" viewBox="0 0 64 64" fill="none" xmlns="http://www.w3.org/2000/svg">
  <rect width="64" height="64" rx="12" fill="#4F46E5"/>
  <path d="M20 48V16H35.5C38.3 16 40.6 16.7 42.4 18.1C44.2 19.5 45.1 21.4 45.1 23.8C45.1 25.4 44.7 26.8 43.9 28C43.1 29.2 42 30.1 40.6 30.7C42.3 31.1 43.6 32 44.6 33.4C45.6 34.8 46.1 36.5 46.1 38.5C46.1 41.1 45.1 43.2 43.1 44.8C41.1 46.4 38.5 47.2 35.3 47.2H20V48ZM27.5 28.5H34C35.4 28.5 36.5 28.2 37.3 27.6C38.1 27 38.5 26.1 38.5 24.9C38.5 23.7 38.1 22.8 37.3 22.2C36.5 21.6 35.4 21.3 34 21.3H27.5V28.5ZM27.5 42.7H34.8C36.3 42.7 37.5 42.3 38.4 41.6C39.3 40.9 39.7 39.9 39.7 38.6C39.7 37.3 39.3 36.3 38.4 35.6C37.5 34.9 36.3 34.5 34.8 34.5H27.5V42.7Z" fill="white"/>
</svg>